<?xml version="1.0" standalone="no"?>
<!DOCTYPE svg PUBLIC "-//W3C//DTD SVG 20010904//EN"
 "http://www.w3.org/TR/2001/REC-SVG-20010904/DTD/svg10.dtd">
<svg version="1.0" xmlns="http://www.w3.org/2000/svg"
 width="503.000000pt" height="143.000000pt" viewBox="0 0 503.000000 143.000000"
 preserveAspectRatio="xMidYMid meet">
<metadata>
Created by potrace 1.16, written by Peter Selinger 2001-2019
</metadata>
<g transform="translate(0.000000,143.000000) scale(0.100000,-0.100000)"
fill="#000000" stroke="none">
<path d="M1275 882 l-30 -19 1 -174 c1 -130 5 -173 14 -171 6 1 9 -2 5 -7 -11
-18 33 -31 107 -31 43 0 82 5 93 13 11 7 38 19 60 26 22 8 52 22 66 32 14 10
37 21 52 24 25 7 26 8 12 28 -11 16 -15 52 -15 144 l0 123 35 0 35 0 0 -104
c0 -59 4 -108 10 -111 6 -4 10 33 10 104 l0 111 35 0 35 0 0 -110 c0 -84 3
-110 13 -110 9 0 19 36 32 110 l19 110 51 0 51 0 13 -79 c13 -77 13 -78 36
-67 28 13 35 33 35 99 l0 47 35 0 c19 0 38 1 42 3 4 1 12 -18 17 -43 l9 -45 9
43 c9 41 10 42 47 42 44 0 51 -12 51 -89 0 -41 1 -43 24 -37 15 4 26 1 29 -7
2 -6 10 21 16 61 l13 72 48 0 c52 0 52 0 65 -70 11 -59 15 -68 35 -73 18 -5
20 0 20 52 0 72 17 91 83 91 52 0 77 -23 77 -72 0 -25 -3 -28 -35 -28 -24 0
-35 5 -35 15 0 8 -4 15 -10 15 -6 0 -10 -26 -10 -59 l0 -59 45 6 c43 4 45 3
45 -21 0 -14 4 -28 9 -31 10 -7 13 4 36 137 l17 97 49 0 c56 0 48 14 79 -150
27 -141 27 -140 -14 -140 -33 0 -35 2 -43 42 -12 59 -28 58 -40 -2 -10 -50
-10 -51 22 -76 40 -30 54 -30 140 4 l70 27 -47 3 -48 3 0 145 0 144 55 0 c46
0 60 -4 80 -25 23 -22 25 -32 25 -113 0 -75 -3 -93 -21 -116 l-21 -26 26 11
26 12 0 129 0 128 75 0 75 0 0 -35 c0 -33 -2 -35 -35 -35 -19 0 -35 -4 -35
-10 0 -5 14 -10 30 -10 28 0 30 -2 30 -40 0 -38 -2 -40 -30 -40 -24 0 -30 -4
-30 -21 0 -19 4 -21 31 -15 17 3 37 6 45 6 13 0 16 17 29 142 l6 56 39 4 c38
3 39 3 46 -35 6 -41 20 -39 26 3 3 22 9 25 45 28 l41 3 7 -95 c6 -74 10 -93
21 -89 11 4 14 27 14 93 0 78 2 89 19 95 43 13 50 -1 54 -113 l3 -107 2 108 2
107 75 0 75 0 0 -35 c0 -33 -2 -35 -35 -35 -19 0 -35 -4 -35 -10 0 -5 14 -10
30 -10 28 0 30 -2 30 -40 0 -38 -2 -40 -30 -40 -23 0 -30 -4 -30 -20 0 -16 7
-20 35 -20 34 0 35 -1 35 -40 l0 -40 -74 0 c-63 0 -75 3 -79 18 -4 16 -5 16
-6 0 -1 -14 -10 -18 -36 -18 -32 0 -35 2 -35 30 0 17 -4 30 -10 30 -5 0 -10
-13 -10 -30 0 -28 -3 -30 -34 -30 -28 0 -35 4 -39 23 l-4 22 -2 -22 c-1 -20
-7 -23 -40 -23 -33 0 -40 4 -44 23 l-4 22 -2 -22 c-1 -20 -7 -23 -41 -23 -39
0 -40 1 -34 26 5 19 4 25 -5 20 -6 -4 -11 -16 -11 -27 0 -17 -7 -19 -66 -19
-51 0 -73 -5 -95 -21 -16 -11 -29 -18 -29 -15 0 3 -9 -3 -20 -14 -11 -11 -20
-24 -20 -29 0 -5 -8 -11 -17 -13 -10 -3 163 -4 385 -4 l403 1 19 25 c19 24 29
117 13 107 -5 -3 -8 30 -8 73 0 43 3 73 8 67 4 -7 6 13 5 43 -2 35 -7 54 -15
53 -6 -1 -17 5 -25 15 -12 15 -11 16 5 3 10 -8 17 -9 17 -3 0 25 -75 31 -373
30 -217 -1 -319 -5 -345 -13 -29 -11 -38 -10 -50 1 -18 19 -81 18 -127 -2 -20
-8 -34 -11 -31 -6 15 25 -74 29 -127 7 -31 -13 -40 -13 -83 2 -43 15 -50 15
-94 -1 -26 -9 -55 -14 -65 -10 -14 6 -16 4 -10 -7 4 -8 -2 -4 -14 9 -25 26
-71 29 -122 8 -19 -7 -40 -11 -48 -8 -9 3 -11 0 -6 -8 5 -9 4 -11 -4 -6 -6 4
-9 11 -6 16 3 5 -3 11 -12 14 -32 9 -187 4 -207 -6 -22 -12 -77 -17 -70 -7 13
22 -79 25 -131 3 -20 -8 -34 -11 -31 -6 15 25 -148 30 -183 6 -14 -10 -26 -13
-30 -7 -20 33 -112 21 -158 -20 -21 -18 -23 -19 -29 -3 -8 22 -56 46 -91 46
-15 0 -41 -8 -58 -18z m85 -117 l0 -105 45 0 45 0 0 -40 0 -40 -80 0 -80 0 0
145 0 145 35 0 35 0 0 -105z m244 90 c21 -22 29 -72 24 -161 -3 -65 -7 -79
-27 -95 -34 -27 -86 -25 -117 6 -24 24 -25 29 -23 140 1 63 5 112 9 110 3 -2
12 0 20 6 24 14 97 11 114 -6z"/>
<path d="M2274 635 l6 -55 -39 0 c-29 0 -41 5 -44 18 -4 16 -5 16 -6 0 -1 -21
-60 -25 -79 -6 -9 9 -12 9 -12 0 0 -7 -15 -12 -36 -12 l-37 0 6 49 c5 45 4 48
-14 44 -19 -5 -19 -14 -2 -75 4 -15 -2 -18 -35 -18 -37 0 -40 2 -46 35 -8 42
-34 38 -43 -6 -5 -26 -9 -29 -45 -29 -31 0 -39 3 -35 15 5 12 -3 11 -43 -5
-56 -22 -89 -41 -91 -52 -1 -5 -2 -14 -3 -20 -1 -7 -8 -12 -16 -10 -12 3 -13
1 -2 -10 10 -10 119 -13 550 -14 295 0 526 3 512 7 -17 5 -19 7 -7 8 14 1 17
6 12 24 -4 12 -9 30 -11 40 -3 9 -10 17 -15 17 -6 0 -17 7 -25 15 -14 13 -18
13 -37 0 -53 -37 -127 -5 -127 55 0 20 -5 30 -15 30 -13 0 -15 -9 -9 -50 l7
-50 -37 0 c-37 0 -39 3 -48 64 -6 39 -27 27 -33 -18 -7 -46 -8 -46 -47 -46
-43 0 -42 -5 -21 88 4 18 1 22 -17 22 -22 0 -22 -3 -16 -55z"/>
</g>
</svg>
