<?xml version="1.0" standalone="no"?>
<!DOCTYPE svg PUBLIC "-//W3C//DTD SVG 20010904//EN"
 "http://www.w3.org/TR/2001/REC-SVG-20010904/DTD/svg10.dtd">
<svg version="1.0" xmlns="http://www.w3.org/2000/svg"
 width="500.000000pt" height="256.000000pt" viewBox="0 0 500.000000 256.000000"
 preserveAspectRatio="xMidYMid meet">
<metadata>
Created by potrace 1.16, written by Peter Selinger 2001-2019
</metadata>
<g transform="translate(0.000000,256.000000) scale(0.100000,-0.100000)"
fill="#000000" stroke="none">
<path d="M2025 2358 c-32 -57 -69 -121 -82 -143 l-22 -41 252 -439 253 -440
170 -3 170 -2 80 137 c43 75 81 143 84 150 3 6 43 -54 90 -135 l85 -147 133
-3 132 -3 0 -65 c0 -59 -2 -65 -17 -58 -43 18 -88 16 -122 -8 -51 -34 -71 -80
-71 -161 0 -79 16 -125 55 -155 37 -29 103 -30 139 -1 21 17 26 18 26 5 0 -13
12 -16 55 -16 l55 0 0 234 c0 197 -2 235 -14 238 -11 2 7 41 65 140 l80 138
-253 440 -252 440 -176 0 -177 0 -83 -145 -83 -146 -17 29 c-10 16 -48 81 -85
146 l-67 116 -172 0 -172 0 -59 -102z m1334 -1272 c8 -9 11 -43 9 -92 -3 -76
-4 -79 -31 -88 -44 -16 -62 10 -62 88 0 49 5 69 19 85 22 24 48 27 65 7z"/>
<path d="M200 1050 l0 -220 134 0 c130 0 134 1 140 23 17 63 13 66 -76 69
l-83 3 -3 173 -2 172 -55 0 -55 0 0 -220z"/>
<path d="M2220 1263 c0 -5 -29 -104 -64 -220 l-63 -213 62 0 63 0 6 45 7 45
59 0 60 0 11 -45 11 -45 59 0 c33 0 59 3 59 8 0 4 -28 103 -62 220 l-62 212
-73 0 c-40 0 -73 -3 -73 -7z"/>
<path d="M610 1169 c-66 -27 -100 -85 -100 -171 0 -83 22 -126 80 -155 85 -44
192 -17 230 58 26 51 27 151 2 199 -33 63 -139 98 -212 69z m94 -84 c30 -31
33 -137 5 -171 -14 -17 -53 -18 -67 -1 -16 19 -25 83 -18 122 7 37 29 65 51
65 7 0 20 -7 29 -15z"/>
<path d="M1302 1169 c-33 -8 -42 -14 -38 -26 3 -8 9 -26 12 -40 5 -17 11 -22
22 -18 29 11 97 16 108 8 6 -4 14 -18 18 -30 7 -21 4 -23 -27 -23 -60 0 -97
-12 -127 -40 -25 -23 -30 -36 -30 -75 0 -38 5 -52 29 -76 37 -36 98 -40 150
-8 29 18 35 18 50 5 9 -8 28 -17 42 -21 22 -6 27 -2 36 29 6 20 8 38 3 41 -4
2 -9 51 -12 107 -5 106 -14 135 -51 158 -27 17 -131 22 -185 9z"/>
<path d="M1770 1173 c-8 -3 -23 -13 -33 -22 -17 -14 -19 -14 -28 2 -7 12 -23
17 -54 17 l-45 0 0 -170 0 -170 55 0 55 0 0 118 c0 105 2 121 19 136 35 31 41
12 41 -125 l0 -129 60 0 60 0 0 118 c0 105 2 121 19 136 35 31 41 12 41 -125
l0 -129 60 0 60 0 0 130 c0 140 -12 189 -48 209 -31 17 -73 13 -110 -9 l-33
-20 -26 20 c-25 19 -62 24 -93 13z"/>
<path d="M2593 1160 c-52 -27 -82 -73 -90 -139 -8 -68 17 -132 65 -169 30 -23
45 -27 102 -27 47 0 74 5 93 18 l28 18 -21 29 c-19 27 -24 29 -66 23 -62 -8
-84 13 -84 81 0 65 20 96 61 96 17 0 38 -4 47 -9 14 -7 22 -2 40 25 l22 34
-26 17 c-41 27 -121 28 -171 3z"/>
<path d="M2868 1168 c-40 -10 -44 -20 -29 -61 9 -23 11 -24 65 -14 60 11 86 1
86 -34 0 -15 -7 -19 -32 -19 -120 0 -191 -86 -141 -170 31 -53 117 -68 167
-29 24 19 29 20 44 6 9 -9 29 -18 43 -22 24 -6 28 -3 39 30 9 27 9 40 1 48 -6
6 -11 49 -11 101 0 53 -6 102 -13 116 -26 53 -123 74 -219 48z"/>
<path d="M3621 1158 c-60 -31 -86 -82 -85 -164 1 -105 52 -164 149 -172 54 -4
137 17 151 39 3 5 -4 22 -16 38 -19 28 -22 29 -48 15 -38 -20 -79 -17 -102 6
-42 42 -29 50 86 50 l107 0 -6 51 c-11 94 -62 149 -144 156 -37 3 -58 -1 -92
-19z"/>
<path d="M4042 1160 c-28 -17 -33 -18 -38 -5 -4 11 -21 15 -55 15 l-49 0 0
-170 0 -170 60 0 60 0 0 119 c0 97 3 123 16 136 32 32 39 12 42 -123 l3 -132
59 0 60 0 0 119 c0 97 3 123 16 136 32 32 39 12 42 -123 l3 -132 54 0 55 0 0
149 c0 171 -6 188 -75 197 -31 5 -48 1 -74 -18 l-35 -23 -23 22 c-28 29 -77
30 -121 3z"/>
<path d="M4695 1166 c-66 -29 -100 -101 -93 -193 8 -91 63 -145 155 -150 45
-3 69 1 106 19 l48 23 -23 32 c-22 29 -25 30 -48 17 -54 -29 -120 -9 -120 37
0 17 8 19 100 19 l100 0 0 43 c-1 68 -32 124 -82 147 -50 23 -101 25 -143 6z"/>
<path d="M892 1020 l3 -152 28 -24 c35 -30 88 -31 133 -3 29 17 34 18 34 5 0
-12 11 -16 50 -16 l50 0 0 170 0 170 -55 0 -55 0 0 -118 c0 -105 -2 -121 -20
-137 -40 -36 -49 -16 -52 122 l-3 128 -58 3 -59 3 4 -151z"/>
<path d="M4440 1000 l0 -170 55 0 55 0 0 170 0 170 -55 0 -55 0 0 -170z"/>
<path d="M2530 540 c0 -27 -3 -30 -24 -24 -45 11 -81 -58 -55 -105 12 -22 23
-26 62 -28 l47 -2 0 95 c0 77 -3 94 -15 94 -10 0 -15 -10 -15 -30z"/>
<path d="M2878 521 c-20 -4 -44 -13 -52 -21 -18 -14 -21 -46 -6 -55 6 -4 8
-16 4 -27 -7 -24 10 -38 49 -38 17 0 27 -5 27 -15 0 -17 -55 -21 -65 -5 -10
16 -27 11 -23 -7 4 -21 49 -34 86 -24 22 6 27 13 27 37 0 25 -5 30 -38 38
l-38 10 33 10 c28 9 33 16 33 41 0 17 6 34 13 38 12 8 8 28 -6 26 -4 -1 -24
-5 -44 -8z"/>
</g>
</svg>
